<svg version="1.1" id="Layer_1" xmlns="http://www.w3.org/2000/svg" xmlns:xlink="http://www.w3.org/1999/xlink" x="0px" y="0px"
	 width="100%" viewBox="0 0 500 500" enable-background="new 0 0 500 500" xml:space="preserve">
<path fill="#FFFFFF" opacity="1.000000" stroke="none" 
	d="
M1.000000,256.000000 
	C1.000000,171.018524 1.000000,86.037033 1.000000,1.027776 
	C167.611832,1.027776 334.223663,1.027776 500.917755,1.027776 
	C500.917755,167.575500 500.917755,334.151031 500.917755,500.863281 
	C334.333405,500.863281 167.666718,500.863281 1.000000,500.863281 
	C1.000000,427.898315 1.000000,354.914154 1.356135,281.654297 
	C2.122639,283.655945 2.552368,285.929962 2.940551,288.211090 
	C13.159241,348.261139 72.537827,389.399261 132.682144,378.093567 
	C182.091461,368.805817 218.367844,330.424896 224.092865,281.062408 
	C228.131516,246.240204 217.953033,215.704208 193.726974,190.674225 
	C166.157150,162.189499 132.046982,150.754395 92.894218,158.105347 
	C50.504032,166.064102 22.166214,191.511398 7.153652,231.699860 
	C4.247191,239.480423 3.008180,247.883881 1.000000,256.000000 
M405.721039,278.747345 
	C409.650970,292.119751 417.729614,302.175598 431.381104,305.533386 
	C439.733032,307.587646 448.897034,307.872192 457.506775,307.024994 
	C474.990631,305.304626 485.672089,294.833710 490.175385,277.965454 
	C493.683807,264.823608 493.713654,251.584991 490.630707,238.418396 
	C486.950500,222.700974 477.766510,211.803329 461.502472,208.469971 
	C455.222473,207.182846 448.559753,206.862030 442.148865,207.282532 
	C422.396454,208.578064 409.588043,219.663208 404.892639,238.971512 
	C401.725220,251.996506 402.071198,265.035858 405.721039,278.747345 
M388.845795,269.500519 
	C388.845795,263.070343 388.845795,256.640198 388.845795,250.304108 
	C374.812500,250.304108 361.404388,250.304108 348.177490,250.304108 
	C348.177490,257.017853 348.177490,263.419647 348.177490,270.282349 
	C353.230255,270.282349 357.957581,270.282349 362.821625,270.282349 
	C362.821625,274.576508 362.654999,278.405060 362.874817,282.211304 
	C363.047852,285.207886 361.582367,285.795624 359.022858,285.986908 
	C347.400696,286.855408 339.074799,281.657104 337.358948,270.177795 
	C336.056305,261.463104 336.260284,252.241074 337.532806,243.497879 
	C338.991425,233.476227 345.751404,228.539658 355.962738,229.188248 
	C363.108948,229.642166 370.152802,231.707230 377.748627,233.148788 
	C380.199341,227.129242 382.974792,220.312012 385.835938,213.284332 
	C373.275879,207.816910 360.553375,205.997009 347.441803,207.384369 
	C330.673279,209.158676 317.883545,216.950134 311.096069,232.973572 
	C306.487427,243.853455 305.999207,255.353378 307.267914,266.843903 
	C309.626465,288.204926 320.524872,301.863892 338.975311,306.346100 
	C355.153687,310.276367 371.038696,307.208221 386.656586,302.683502 
	C387.703857,302.380096 388.718811,299.943329 388.748474,298.478516 
	C388.937408,289.155609 388.845306,279.826996 388.845795,269.500519 
M290.489685,211.988739 
	C276.911774,207.220108 263.183411,206.184982 249.442459,211.014343 
	C240.481125,214.163864 234.030563,219.995148 231.792175,229.692978 
	C228.185364,245.319443 233.644943,257.228577 247.905365,264.477509 
	C251.155548,266.129639 254.574295,267.447693 257.849152,269.054626 
	C260.524841,270.367554 263.711151,271.349792 265.550598,273.456818 
	C267.380280,275.552643 269.033234,279.140717 268.491486,281.567078 
	C268.014191,283.704681 264.633301,285.881531 262.104919,286.679779 
	C259.590057,287.473785 256.428894,287.010040 253.745224,286.330872 
	C245.969452,284.362885 238.291183,282.009583 230.485611,279.782104 
	C230.485611,285.824799 230.670502,291.988464 230.406693,298.132874 
	C230.277069,301.152161 231.359650,302.497742 234.076050,303.606476 
	C246.185577,308.549011 258.668274,309.006409 271.344604,306.982727 
	C285.108887,304.785492 294.377136,295.446320 296.707672,281.785370 
	C298.955719,268.607605 293.688049,258.046417 281.325317,251.076950 
	C279.160034,249.856277 276.869690,248.859406 274.660736,247.713669 
	C271.123138,245.878815 267.566833,244.074570 264.089996,242.129471 
	C260.704224,240.235352 257.878082,237.723969 259.227631,233.371292 
	C260.606995,228.922440 264.543396,228.934326 268.292877,229.056442 
	C269.614166,229.099487 270.971222,229.241898 272.236450,229.603287 
	C277.772278,231.184540 283.280457,232.862823 289.229950,234.634323 
	C291.764252,228.426392 294.432770,221.889679 297.249634,214.989578 
	C295.065582,213.974091 293.152893,213.084763 290.489685,211.988739 
z"/>
<path fill="#F26632" opacity="1.000000" stroke="none" 
	d="
M1.000000,256.468628 
	C3.008180,247.883881 4.247191,239.480423 7.153652,231.699860 
	C22.166214,191.511398 50.504032,166.064102 92.894218,158.105347 
	C132.046982,150.754395 166.157150,162.189499 193.726974,190.674225 
	C217.953033,215.704208 228.131516,246.240204 224.092865,281.062408 
	C218.367844,330.424896 182.091461,368.805817 132.682144,378.093567 
	C72.537827,389.399261 13.159241,348.261139 2.940551,288.211090 
	C2.552368,285.929962 2.122639,283.655945 1.356135,281.189301 
	C1.000000,272.979095 1.000000,264.958191 1.000000,256.468628 
M206.425262,314.811554 
	C216.347427,294.691223 219.388733,273.603485 216.084656,251.388687 
	C207.185486,191.555283 146.093750,151.527206 87.287018,166.671783 
	C36.870789,179.655502 1.098079,229.642075 9.904047,284.748993 
	C18.120838,336.168976 65.918022,378.923279 125.635841,371.684326 
	C161.851181,367.294342 188.715622,347.750916 206.425262,314.811554 
z"/>
<path fill="#030303" opacity="1.000000" stroke="none" 
	d="
M405.558655,278.377228 
	C402.071198,265.035858 401.725220,251.996506 404.892639,238.971512 
	C409.588043,219.663208 422.396454,208.578064 442.148865,207.282532 
	C448.559753,206.862030 455.222473,207.182846 461.502472,208.469971 
	C477.766510,211.803329 486.950500,222.700974 490.630707,238.418396 
	C493.713654,251.584991 493.683807,264.823608 490.175385,277.965454 
	C485.672089,294.833710 474.990631,305.304626 457.506775,307.024994 
	C448.897034,307.872192 439.733032,307.587646 431.381104,305.533386 
	C417.729614,302.175598 409.650970,292.119751 405.558655,278.377228 
M433.350769,272.862762 
	C436.557922,282.745087 440.528778,286.215729 448.360748,285.981842 
	C455.987793,285.754120 460.096741,281.683258 462.322327,271.736267 
	C464.610718,261.508484 464.366028,251.238907 461.858826,241.094452 
	C459.831451,232.891418 455.319733,229.109543 448.162994,229.008987 
	C440.795532,228.905472 436.360474,232.326752 433.971222,240.455582 
	C430.904999,250.887299 431.299347,261.470886 433.350769,272.862762 
z"/>
<path fill="#030303" opacity="1.000000" stroke="none" 
	d="
M388.845795,270.000397 
	C388.845306,279.826996 388.937408,289.155609 388.748474,298.478516 
	C388.718811,299.943329 387.703857,302.380096 386.656586,302.683502 
	C371.038696,307.208221 355.153687,310.276367 338.975311,306.346100 
	C320.524872,301.863892 309.626465,288.204926 307.267914,266.843903 
	C305.999207,255.353378 306.487427,243.853455 311.096069,232.973572 
	C317.883545,216.950134 330.673279,209.158676 347.441803,207.384369 
	C360.553375,205.997009 373.275879,207.816910 385.835938,213.284332 
	C382.974792,220.312012 380.199341,227.129242 377.748627,233.148788 
	C370.152802,231.707230 363.108948,229.642166 355.962738,229.188248 
	C345.751404,228.539658 338.991425,233.476227 337.532806,243.497879 
	C336.260284,252.241074 336.056305,261.463104 337.358948,270.177795 
	C339.074799,281.657104 347.400696,286.855408 359.022858,285.986908 
	C361.582367,285.795624 363.047852,285.207886 362.874817,282.211304 
	C362.654999,278.405060 362.821625,274.576508 362.821625,270.282349 
	C357.957581,270.282349 353.230255,270.282349 348.177490,270.282349 
	C348.177490,263.419647 348.177490,257.017853 348.177490,250.304108 
	C361.404388,250.304108 374.812500,250.304108 388.845795,250.304108 
	C388.845795,256.640198 388.845795,263.070343 388.845795,270.000397 
z"/>
<path fill="#030303" opacity="1.000000" stroke="none" 
	d="
M290.864929,212.092102 
	C293.152893,213.084763 295.065582,213.974091 297.249634,214.989578 
	C294.432770,221.889679 291.764252,228.426392 289.229950,234.634323 
	C283.280457,232.862823 277.772278,231.184540 272.236450,229.603287 
	C270.971222,229.241898 269.614166,229.099487 268.292877,229.056442 
	C264.543396,228.934326 260.606995,228.922440 259.227631,233.371292 
	C257.878082,237.723969 260.704224,240.235352 264.089996,242.129471 
	C267.566833,244.074570 271.123138,245.878815 274.660736,247.713669 
	C276.869690,248.859406 279.160034,249.856277 281.325317,251.076950 
	C293.688049,258.046417 298.955719,268.607605 296.707672,281.785370 
	C294.377136,295.446320 285.108887,304.785492 271.344604,306.982727 
	C258.668274,309.006409 246.185577,308.549011 234.076050,303.606476 
	C231.359650,302.497742 230.277069,301.152161 230.406693,298.132874 
	C230.670502,291.988464 230.485611,285.824799 230.485611,279.782104 
	C238.291183,282.009583 245.969452,284.362885 253.745224,286.330872 
	C256.428894,287.010040 259.590057,287.473785 262.104919,286.679779 
	C264.633301,285.881531 268.014191,283.704681 268.491486,281.567078 
	C269.033234,279.140717 267.380280,275.552643 265.550598,273.456818 
	C263.711151,271.349792 260.524841,270.367554 257.849152,269.054626 
	C254.574295,267.447693 251.155548,266.129639 247.905365,264.477509 
	C233.644943,257.228577 228.185364,245.319443 231.792175,229.692978 
	C234.030563,219.995148 240.481125,214.163864 249.442459,211.014343 
	C263.183411,206.184982 276.911774,207.220108 290.864929,212.092102 
z"/>
<path fill="#FEFEFD" opacity="1.000000" stroke="none" 
	d="
M206.231842,315.131409 
	C188.715622,347.750916 161.851181,367.294342 125.635841,371.684326 
	C65.918022,378.923279 18.120838,336.168976 9.904047,284.748993 
	C1.098079,229.642075 36.870789,179.655502 87.287018,166.671783 
	C146.093750,151.527206 207.185486,191.555283 216.084656,251.388687 
	C219.388733,273.603485 216.347427,294.691223 206.231842,315.131409 
M158.806519,221.670609 
	C154.241959,220.599106 150.675491,222.398361 147.726379,225.681107 
	C140.606155,233.606918 133.544846,241.585632 126.455933,249.539597 
	C118.279808,258.713470 110.099564,267.883667 101.791969,277.200287 
	C99.534203,274.596130 97.579338,272.346832 95.630684,270.092163 
	C93.671257,267.825043 91.779297,265.496094 89.749779,263.293762 
	C84.952187,258.087677 78.168823,257.327698 73.288483,261.371460 
	C68.570671,265.280518 68.160408,272.574127 72.655403,277.868896 
	C79.441696,285.862640 86.319969,293.783630 93.348785,301.564240 
	C98.140182,306.868164 105.019394,306.845734 109.959862,301.667297 
	C113.751083,297.693481 117.339935,293.525726 120.994843,289.422852 
	C135.279999,273.386871 149.613937,257.393707 163.809692,241.278885 
	C170.679031,233.480927 168.850067,225.641327 158.806519,221.670609 
M179.534470,316.003662 
	C178.176743,317.683380 177.051788,319.643890 175.421814,320.995239 
	C167.530579,327.537567 159.420105,333.817871 151.607056,340.449860 
	C150.304306,341.555664 150.086136,343.939178 149.366791,345.732300 
	C151.213913,346.164368 153.561539,347.550903 154.832611,346.884399 
	C172.143250,337.807129 185.164444,324.406494 193.635193,306.776245 
	C194.314758,305.361847 193.062897,303.019470 192.708603,301.108337 
	C190.817825,301.876617 188.217636,302.115875 187.173782,303.515717 
	C184.412766,307.218292 182.325638,311.423431 179.534470,316.003662 
M33.016899,228.621887 
	C34.130531,229.801331 35.209118,231.881500 36.366867,231.926575 
	C37.737762,231.979904 39.758682,230.604538 40.497585,229.287323 
	C48.957123,214.206619 60.780476,202.690140 76.168892,194.806549 
	C78.555389,193.583908 80.504120,191.861465 78.898209,188.902710 
	C77.205910,185.784760 74.719025,187.049042 72.459114,188.236359 
	C55.186043,197.311371 41.732391,210.196777 33.016899,228.621887 
M24.538193,254.106400 
	C24.100252,258.391418 23.297937,262.686096 23.410934,266.956543 
	C23.453726,268.573700 25.607504,270.135040 26.799061,271.721832 
	C28.201653,270.382904 30.553261,269.222443 30.844406,267.674438 
	C32.185856,260.542114 33.135288,253.318039 33.778786,246.087097 
	C33.914520,244.561829 32.174122,242.869598 31.298185,241.254288 
	C29.772158,242.188187 27.446484,242.786911 26.885525,244.125305 
	C25.694845,246.966156 25.423058,250.192154 24.538193,254.106400 
M109.479332,352.765900 
	C108.968704,356.708862 111.556107,357.971313 114.596657,357.668304 
	C121.506218,356.979706 128.420288,356.053955 135.206100,354.624390 
	C136.713501,354.306824 137.698715,351.510498 138.924347,349.855469 
	C137.025787,349.074554 135.070648,347.519592 133.238983,347.653503 
	C126.984245,348.110779 120.757294,349.063965 114.555588,350.052826 
	C112.916824,350.314117 111.407043,351.384247 109.479332,352.765900 
M94.923767,180.185684 
	C92.221893,181.285538 87.536995,180.853134 88.526176,185.371567 
	C89.574593,190.160553 93.749573,187.870850 96.830673,187.550186 
	C101.597786,187.054077 106.352211,186.377106 111.130867,186.072693 
	C114.073364,185.885239 116.853355,185.400253 116.581032,181.898422 
	C116.317978,178.515732 113.382446,178.030731 110.544952,178.321289 
	C105.606461,178.826996 100.681602,179.465912 94.923767,180.185684 
M193.277527,284.771179 
	C192.989899,287.372284 192.068756,290.397949 195.913452,291.085114 
	C200.017944,291.818695 200.414673,288.457489 200.832657,285.764648 
	C201.640656,280.559113 202.203217,275.310150 202.695602,270.063049 
	C202.965637,267.185516 202.082809,264.185059 198.776566,264.563782 
	C197.331161,264.729340 195.507507,267.755127 195.116745,269.731384 
	C194.195389,274.391144 194.031296,279.200623 193.277527,284.771179 
z"/>
<path fill="#FCFCFC" opacity="1.000000" stroke="none" 
	d="
M433.242889,272.463135 
	C431.299347,261.470886 430.904999,250.887299 433.971222,240.455582 
	C436.360474,232.326752 440.795532,228.905472 448.162994,229.008987 
	C455.319733,229.109543 459.831451,232.891418 461.858826,241.094452 
	C464.366028,251.238907 464.610718,261.508484 462.322327,271.736267 
	C460.096741,281.683258 455.987793,285.754120 448.360748,285.981842 
	C440.528778,286.215729 436.557922,282.745087 433.242889,272.463135 
z"/>
<path fill="#F26632" opacity="1.000000" stroke="none" 
	d="
M159.175247,221.774872 
	C168.850067,225.641327 170.679031,233.480927 163.809692,241.278885 
	C149.613937,257.393707 135.279999,273.386871 120.994843,289.422852 
	C117.339935,293.525726 113.751083,297.693481 109.959862,301.667297 
	C105.019394,306.845734 98.140182,306.868164 93.348785,301.564240 
	C86.319969,293.783630 79.441696,285.862640 72.655403,277.868896 
	C68.160408,272.574127 68.570671,265.280518 73.288483,261.371460 
	C78.168823,257.327698 84.952187,258.087677 89.749779,263.293762 
	C91.779297,265.496094 93.671257,267.825043 95.630684,270.092163 
	C97.579338,272.346832 99.534203,274.596130 101.791969,277.200287 
	C110.099564,267.883667 118.279808,258.713470 126.455933,249.539597 
	C133.544846,241.585632 140.606155,233.606918 147.726379,225.681107 
	C150.675491,222.398361 154.241959,220.599106 159.175247,221.774872 
M159.798981,230.849380 
	C156.740204,227.221786 154.484421,229.159439 152.130966,231.818161 
	C136.903351,249.021103 121.640182,266.192657 106.362213,283.350952 
	C102.325386,287.884583 100.963417,287.792969 96.919746,283.095551 
	C92.683624,278.174591 88.441299,273.258026 84.130875,268.402405 
	C82.543877,266.614685 80.381630,264.571594 78.441170,267.301910 
	C77.530899,268.582703 77.736610,271.846191 78.774521,273.126617 
	C84.955223,280.751434 91.593140,288.003265 97.936554,295.499634 
	C100.675919,298.736908 102.936317,298.565521 105.654732,295.492828 
	C123.084457,275.791473 140.605438,256.170807 157.997757,236.436661 
	C159.081772,235.206696 159.329651,233.239777 159.798981,230.849380 
z"/>
<path fill="#F26733" opacity="1.000000" stroke="none" 
	d="
M179.752380,315.716095 
	C182.325638,311.423431 184.412766,307.218292 187.173782,303.515717 
	C188.217636,302.115875 190.817825,301.876617 192.708603,301.108337 
	C193.062897,303.019470 194.314758,305.361847 193.635193,306.776245 
	C185.164444,324.406494 172.143250,337.807129 154.832611,346.884399 
	C153.561539,347.550903 151.213913,346.164368 149.366791,345.732300 
	C150.086136,343.939178 150.304306,341.555664 151.607056,340.449860 
	C159.420105,333.817871 167.530579,327.537567 175.421814,320.995239 
	C177.051788,319.643890 178.176743,317.683380 179.752380,315.716095 
z"/>
<path fill="#F26733" opacity="1.000000" stroke="none" 
	d="
M33.040054,228.229187 
	C41.732391,210.196777 55.186043,197.311371 72.459114,188.236359 
	C74.719025,187.049042 77.205910,185.784760 78.898209,188.902710 
	C80.504120,191.861465 78.555389,193.583908 76.168892,194.806549 
	C60.780476,202.690140 48.957123,214.206619 40.497585,229.287323 
	C39.758682,230.604538 37.737762,231.979904 36.366867,231.926575 
	C35.209118,231.881500 34.130531,229.801331 33.040054,228.229187 
z"/>
<path fill="#F26733" opacity="1.000000" stroke="none" 
	d="
M24.656364,253.683319 
	C25.423058,250.192154 25.694845,246.966156 26.885525,244.125305 
	C27.446484,242.786911 29.772158,242.188187 31.298185,241.254288 
	C32.174122,242.869598 33.914520,244.561829 33.778786,246.087097 
	C33.135288,253.318039 32.185856,260.542114 30.844406,267.674438 
	C30.553261,269.222443 28.201653,270.382904 26.799063,271.721832 
	C25.607504,270.135040 23.453726,268.573700 23.410934,266.956543 
	C23.297937,262.686096 24.100252,258.391418 24.656364,253.683319 
z"/>
<path fill="#F26733" opacity="1.000000" stroke="none" 
	d="
M109.658691,352.424469 
	C111.407043,351.384247 112.916824,350.314117 114.555588,350.052826 
	C120.757294,349.063965 126.984245,348.110779 133.238983,347.653503 
	C135.070648,347.519592 137.025787,349.074554 138.924347,349.855469 
	C137.698715,351.510498 136.713501,354.306824 135.206100,354.624390 
	C128.420288,356.053955 121.506218,356.979706 114.596657,357.668304 
	C111.556107,357.971313 108.968704,356.708862 109.658691,352.424469 
z"/>
<path fill="#F26834" opacity="1.000000" stroke="none" 
	d="
M95.337402,180.117325 
	C100.681602,179.465912 105.606461,178.826996 110.544952,178.321289 
	C113.382446,178.030731 116.317978,178.515732 116.581032,181.898422 
	C116.853355,185.400253 114.073364,185.885239 111.130867,186.072693 
	C106.352211,186.377106 101.597786,187.054077 96.830673,187.550186 
	C93.749573,187.870850 89.574593,190.160553 88.526176,185.371567 
	C87.536995,180.853134 92.221893,181.285538 95.337402,180.117325 
z"/>
<path fill="#F26733" opacity="1.000000" stroke="none" 
	d="
M193.419189,284.360352 
	C194.031296,279.200623 194.195389,274.391144 195.116745,269.731384 
	C195.507507,267.755127 197.331161,264.729340 198.776566,264.563782 
	C202.082809,264.185059 202.965637,267.185516 202.695602,270.063049 
	C202.203217,275.310150 201.640656,280.559113 200.832657,285.764648 
	C200.414673,288.457489 200.017944,291.818695 195.913452,291.085114 
	C192.068756,290.397949 192.989899,287.372284 193.419189,284.360352 
z"/>
<path fill="#FCFAF7" opacity="1.000000" stroke="none" 
	d="
M159.882751,231.232559 
	C159.329651,233.239777 159.081772,235.206696 157.997757,236.436661 
	C140.605438,256.170807 123.084457,275.791473 105.654732,295.492828 
	C102.936317,298.565521 100.675919,298.736908 97.936554,295.499634 
	C91.593140,288.003265 84.955223,280.751434 78.774521,273.126617 
	C77.736610,271.846191 77.530899,268.582703 78.441170,267.301910 
	C80.381630,264.571594 82.543877,266.614685 84.130875,268.402405 
	C88.441299,273.258026 92.683624,278.174591 96.919746,283.095551 
	C100.963417,287.792969 102.325386,287.884583 106.362213,283.350952 
	C121.640182,266.192657 136.903351,249.021103 152.130966,231.818161 
	C154.484421,229.159439 156.740204,227.221786 159.882751,231.232559 
z"/>
</svg>